<svg xmlns="http://www.w3.org/2000/svg" viewBox="0 0 100 100">
    <!-- Background circle -->
    <circle cx="50" cy="50" r="45" fill="#ff6b35"/>
    
    <!-- Gear teeth -->
    <g transform="translate(50,50)">
        <path d="M0,-48 L4,-45 L4,-38 L-4,-38 L-4,-45 Z" fill="white" transform="rotate(0)"/>
        <path d="M0,-48 L4,-45 L4,-38 L-4,-38 L-4,-45 Z" fill="white" transform="rotate(60)"/>
        <path d="M0,-48 L4,-45 L4,-38 L-4,-38 L-4,-45 Z" fill="white" transform="rotate(120)"/>
        <path d="M0,-48 L4,-45 L4,-38 L-4,-38 L-4,-45 Z" fill="white" transform="rotate(180)"/>
        <path d="M0,-48 L4,-45 L4,-38 L-4,-38 L-4,-45 Z" fill="white" transform="rotate(240)"/>
        <path d="M0,-48 L4,-45 L4,-38 L-4,-38 L-4,-45 Z" fill="white" transform="rotate(300)"/>
    </g>
    
    <!-- Star of David -->
    <g transform="translate(50,50)">
        <!-- First triangle -->
        <path d="M0,-25 L21.65,12.5 L-21.65,12.5 Z" 
              fill="none" 
              stroke="white" 
              stroke-width="4"
              stroke-linejoin="round"/>
        
        <!-- Second triangle -->
        <path d="M0,25 L-21.65,-12.5 L21.65,-12.5 Z" 
              fill="none" 
              stroke="white" 
              stroke-width="4"
              stroke-linejoin="round"/>
    </g>
    
    <!-- Center circle -->
    <circle cx="50" cy="50" r="8" fill="white"/>
</svg>